# xmcd
#
# Track frame offsets:
#	150
#	10597
#	27657
#	38432
#	52855
#	67792
#	79535
#	94442
#	107605
#	117737
#	131020
#	146720
#	166540
#	186222
#
# Disc length: 2612 seconds
#
# Revision: 1
# Processed by: cddbd v1.5.1PL0 Copyright (c) Steve Scherf et al.
# Submitted via: audiograbber 1.83.01
#
DISCID=ae0a320e
DTITLE=John "Keoni" Trino - Ka Hanakaua
DYEAR=1900
DGENRE=Hawaiian Slack Key
TTITLE0=He Aloha No Ó Honolulu
TTITLE1=Na Lio Ahiu
TTITLE2=Opea E /kaho 'olawe
TTITLE3=Keonis Ki Ho Alu
TTITLE4=Mamas Music Box
TTITLE5=Punahele
TTITLE6=Ka Hanakaua
TTITLE7=Kaula ili
TTITLE8=East Side West Side
TTITLE9=Barefoot on the Range
TTITLE10=Maui Waltz
TTITLE11=Leslie's Lullabye
TTITLE12=Haliá Aloha
TTITLE13=Kolohe
EXTD=
EXTT0=
EXTT1=
EXTT2=
EXTT3=
EXTT4=
EXTT5=
EXTT6=
EXTT7=
EXTT8=
EXTT9=
EXTT10=
EXTT11=
EXTT12=
EXTT13=
PLAYORDER=
